HIERARCHY
ROOT Hips
{
	OFFSET 0.000000 0.000000 0.000000 
	CHANNELS 6 Xposition Yposition Zposition Zrotation Yrotation Xrotation
	JOINT LeftUpLeg
	{
		OFFSET 1.363060 -1.794630 0.839290 
		CHANNELS 3 Zrotation Yrotation Xrotation
		JOINT LeftLeg
		{
			OFFSET 2.448110 -6.726130 0.000000 
			CHANNELS 3 Zrotation Yrotation Xrotation
			JOINT LeftFoot
			{
				OFFSET 2.562200 -7.039590 0.000000 
				CHANNELS 3 Zrotation Yrotation Xrotation
				JOINT LeftToeBase
				{
					OFFSET 0.157640 -0.433110 2.322550 
					CHANNELS 3 Zrotation Yrotation Xrotation
					End Site
					{
						OFFSET 0.000000 0.000000 0.000000 
					}
				}
			}
		}
	}
	JOINT RightUpLeg
	{
		OFFSET -1.305520 -1.794630 0.839290 
		CHANNELS 3 Zrotation Yrotation Xrotation
		JOINT RightLeg
		{
			OFFSET -2.542530 -6.985550 0.000000 
			CHANNELS 3 Zrotation Yrotation Xrotation
			JOINT RightFoot
			{
				OFFSET -2.568260 -7.056230 0.000000 
				CHANNELS 3 Zrotation Yrotation Xrotation
				JOINT RightToeBase
				{
					OFFSET -0.164730 -0.452590 2.363150 
					CHANNELS 3 Zrotation Yrotation Xrotation
					End Site
					{
						OFFSET 0.000000 0.000000 0.000000 
					}
				}
			}
		}
	}
	JOINT Spine
	{
		OFFSET 0.028270 2.035590 -0.193380 
		CHANNELS 3 Zrotation Yrotation Xrotation
		JOINT Spine1
		{
			OFFSET 0.056720 2.048850 -0.042750 
			CHANNELS 3 Zrotation Yrotation Xrotation
			JOINT Neck1
			{
				OFFSET -0.054170 1.746240 0.172020 
				CHANNELS 3 Zrotation Yrotation Xrotation
				JOINT Head
				{
					OFFSET 0.104070 1.761360 -0.123970 
					CHANNELS 3 Zrotation Yrotation Xrotation
					End Site
					{
						OFFSET 0.000000 0.000000 0.000000 
					}
				}
			}
			JOINT LeftArm
			{
				OFFSET 3.362410 1.200890 -0.311210 
				CHANNELS 3 Zrotation Yrotation Xrotation
				JOINT LeftForeArm
				{
					OFFSET 4.983000 -0.000000 -0.000000 
					CHANNELS 3 Zrotation Yrotation Xrotation
					JOINT LeftHand
					{
						OFFSET 3.483560 -0.000000 -0.000000 
						CHANNELS 3 Zrotation Yrotation Xrotation
						JOINT LeftHandIndex1
						{
							OFFSET 0.715260 -0.000000 -0.000000 
							CHANNELS 3 Zrotation Yrotation Xrotation
							End Site
							{
								OFFSET 0.000000 0.000000 0.000000 
							}
						}
					}
				}
			}
			JOINT RightArm
			{
				OFFSET -3.136600 1.374050 -0.404650 
				CHANNELS 3 Zrotation Yrotation Xrotation
				JOINT RightForeArm
				{
					OFFSET -5.241900 -0.000000 -0.000000 
					CHANNELS 3 Zrotation Yrotation Xrotation
					JOINT RightHand
					{
						OFFSET -3.444170 -0.000000 -0.000000 
						CHANNELS 3 Zrotation Yrotation Xrotation
						JOINT RightHandIndex1
						{
							OFFSET -0.622530 -0.000000 -0.000000 
							CHANNELS 3 Zrotation Yrotation Xrotation
							End Site
							{
								OFFSET 0.000000 0.000000 0.000000 
							}
						}
					}
				}
			}
		}
	}
}
MOTION
Frames: 16
Frame Time: 0.041667
14.367304 14.458030 -25.674667 -5.961059 17.280496 -26.179331 -1.334312 25.618658 -37.072469 -27.925862 24.726409 31.838070 15.877125 17.415561 54.812524 0.000000 0.000000 0.000000 16.992094 -35.160949 -41.872504 2.957247 -22.231975 28.556096 -12.677080 7.453882 62.423250 -0.756200 5.553800 -15.495200 17.711926 -36.975905 25.518947 -4.240530 1.473222 -11.639382 7.233793 12.414003 6.394092 -7.060500 4.910500 -0.674900 -55.217712 6.170128 -15.512330 83.364257 -74.177962 -94.185134 3.872595 -10.742103 6.630202 -7.125000 0.000000 0.000000 62.527146 -5.389022 13.339040 -55.141072 50.303194 -64.989769 1.149350 13.263022 -45.697507 7.125000 0.000000 0.000000 
14.370778 14.451083 -25.663413 -5.588578 17.326165 -25.994865 -1.425768 25.705116 -37.219021 -28.230831 24.706218 31.626191 15.983432 17.486538 54.857834 0.000000 0.000000 0.000000 16.778372 -35.146966 -41.832650 2.920779 -22.190279 28.592124 -12.704052 7.639988 62.485696 -0.843600 5.858500 -16.374300 16.340974 -37.772722 24.750929 -3.775689 1.418944 -11.217500 7.334818 12.323331 6.399755 -7.077200 4.859300 -0.716600 -55.051465 5.933618 -15.238260 83.959025 -74.218855 -94.149467 3.580993 -11.007239 7.258118 -7.125000 0.000000 0.000000 62.739144 -5.793048 13.991494 -55.186754 50.374325 -64.845480 1.215477 13.294683 -45.228892 7.125000 0.000000 0.000000 
14.371889 14.456919 -25.670221 -5.075198 17.370582 -25.781531 -1.238459 25.609533 -37.159064 -29.230863 24.500271 31.149856 16.267409 17.719197 54.924815 0.000000 0.000000 0.000000 16.443298 -34.991515 -41.529726 2.918720 -22.174967 28.473277 -12.711707 7.388396 62.544509 -0.768000 5.596200 -15.617100 14.693865 -38.471745 24.028181 -3.146959 1.218041 -10.696136 7.482866 12.353919 6.413145 -7.019400 4.869000 -0.744600 -54.938047 5.617664 -15.048420 84.294394 -74.277659 -94.081820 3.468581 -11.223963 7.981111 -7.125000 0.000000 0.000000 62.928403 -6.163755 14.723531 -55.147354 50.418371 -64.602527 1.339838 13.270840 -44.388718 7.125000 0.000000 0.000000 
14.373140 14.468173 -25.682587 -4.955416 17.392769 -25.727843 -0.982895 25.456056 -37.001865 -29.934138 24.285758 30.850092 16.465036 17.901773 54.933056 0.000000 0.000000 0.000000 16.493897 -34.946907 -41.367440 2.885958 -22.110093 28.371451 -12.693953 7.266825 62.556399 -0.727000 5.447900 -15.190500 13.855716 -38.741194 23.735436 -2.887412 1.087775 -10.366031 7.561346 12.325003 6.424694 -6.936300 4.849900 -0.805400 -54.539252 5.171023 -14.694593 84.398782 -74.238131 -93.985503 3.322113 -11.427436 8.559361 -7.125000 0.000000 0.000000 62.990806 -6.399752 15.175239 -54.907052 50.332169 -64.238156 1.525672 13.154006 -43.136450 7.125000 0.000000 0.000000 
14.374112 14.487068 -25.701204 -5.229566 17.551901 -25.815068 -0.636860 25.286854 -36.697863 -30.590523 23.956943 30.618754 16.645686 18.103870 54.928022 0.000000 0.000000 0.000000 16.687270 -34.742720 -41.075226 2.827312 -22.021884 28.181619 -12.627534 7.008212 62.473632 -0.738000 5.488200 -15.306400 14.109585 -38.484972 24.051478 -3.057712 0.983513 -10.224400 7.531232 12.205232 6.373055 -6.902100 4.752100 -0.925600 -53.743558 4.542841 -14.081824 84.242295 -74.048572 -93.900218 3.099039 -11.569569 8.952903 -7.125000 0.000000 0.000000 62.873609 -6.370301 15.386083 -54.799944 50.284357 -64.076922 1.644252 13.082355 -42.445798 7.125000 0.000000 0.000000 
14.375780 14.487763 -25.699537 -5.761577 17.777826 -26.116615 -0.536853 25.427719 -36.451225 -31.006788 23.720749 30.557257 16.742632 18.239357 54.985135 0.000000 0.000000 0.000000 16.935246 -34.626756 -40.858196 2.849092 -22.035479 28.087338 -12.578761 7.074227 62.414280 -0.785000 5.656200 -15.790000 16.155797 -37.273606 25.393665 -3.657422 0.913115 -10.511981 7.362449 12.151188 6.251795 -6.867800 4.663700 -1.031800 -52.441493 3.771537 -13.185044 83.100875 -73.544650 -93.675836 2.766943 -11.708318 9.336491 -7.125000 0.000000 0.000000 62.166975 -5.956445 15.582234 -54.835421 50.254261 -64.197584 1.648817 13.070845 -42.435892 7.125000 0.000000 0.000000 
14.378558 14.485817 -25.700509 -5.960025 17.899050 -26.350037 -0.512523 25.645655 -36.253519 -31.593220 23.493082 30.365004 16.885835 18.406348 55.103045 0.000000 0.000000 0.000000 16.917821 -34.645551 -40.648915 3.000085 -22.212420 28.032519 -12.607400 6.912149 62.389854 -0.643600 5.132100 -14.285800 18.058575 -35.764814 26.822290 -4.121796 0.825907 -10.841993 7.161826 12.095244 6.163543 -6.859200 4.592700 -1.103400 -51.269901 3.115201 -12.164228 81.847063 -73.006121 -93.423699 2.371695 -11.892746 9.846984 -7.125000 0.000000 0.000000 61.272453 -5.623102 15.896545 -54.820510 50.204616 -64.293601 1.638239 13.087658 -42.432634 7.125000 0.000000 0.000000 
14.380226 14.489152 -25.708290 -5.804088 17.962554 -26.394002 -0.540614 25.923022 -36.148162 -32.235089 23.278793 30.008205 17.060454 18.592733 55.280451 0.000000 0.000000 0.000000 16.644638 -34.835522 -40.559667 3.306198 -22.509659 28.009552 -12.738925 6.609434 62.439842 -0.446300 4.286200 -11.883200 19.313623 -34.645736 27.716877 -4.353891 0.835367 -11.103281 7.004553 11.978648 6.110438 -6.918000 4.510500 -1.139900 -50.255789 2.514364 -11.360022 80.986002 -72.574604 -93.276234 2.070957 -12.005698 10.286303 -7.125000 0.000000 0.000000 60.471581 -5.501432 16.175936 -54.785215 50.169868 -64.405881 1.636815 13.125593 -42.328559 7.125000 0.000000 0.000000 
14.380365 14.506380 -25.727324 -5.374564 17.612809 -26.437795 -0.615597 25.995089 -36.100292 -32.675056 23.021253 29.847523 17.203521 18.723939 55.295727 0.000000 0.000000 0.000000 16.400183 -34.926686 -40.220462 3.555825 -22.689141 27.950755 -12.860135 6.763581 62.535157 -0.487300 4.476000 -12.419900 18.604405 -33.091317 29.069470 -4.341623 0.326224 -10.405396 6.832068 12.025994 6.064769 -7.020000 4.424900 -1.349000 -49.573742 1.149817 -10.258640 79.242694 -72.302679 -92.915134 1.730856 -12.348198 10.562783 -7.125000 0.000000 0.000000 60.549316 -4.992336 16.662813 -55.226987 50.515609 -64.524779 1.638280 13.224708 -42.221712 7.125000 0.000000 0.000000 
14.381476 14.518468 -25.739967 -4.938559 17.391325 -26.393481 -0.434744 25.911195 -35.925354 -33.209993 22.820564 29.423576 17.401129 18.905762 55.371412 0.000000 0.000000 0.000000 16.238499 -35.234169 -40.149192 3.892671 -22.804060 27.894968 -13.053595 7.045343 62.652032 -0.575700 4.858900 -13.506600 17.521097 -33.277665 29.126895 -4.132490 0.266217 -10.056198 6.824437 11.869762 6.036419 -7.042100 4.318100 -1.473800 -49.424436 0.549961 -9.556489 79.051153 -72.403686 -92.762868 1.510411 -12.495808 10.710422 -7.125000 0.000000 0.000000 60.916057 -5.038467 16.994958 -55.768583 50.893617 -64.749451 1.686560 13.296745 -42.050521 7.125000 0.000000 0.000000 
14.383977 14.515967 -25.744969 -4.674571 17.495619 -26.292806 -0.291774 26.044348 -35.798156 -33.828954 22.670002 28.870432 17.594835 19.111763 55.583712 0.000000 0.000000 0.000000 15.987468 -35.538496 -40.270721 4.274640 -23.010660 27.872222 -13.246735 6.791956 62.680923 -0.406500 4.092900 -11.338300 17.809477 -33.754519 28.791545 -4.055106 0.533451 -10.402914 6.850532 11.641334 6.038863 -7.013400 4.257600 -1.395300 -49.020823 0.574514 -9.304838 79.421188 -72.404985 -92.926760 1.397281 -12.339232 10.930435 -7.125000 0.000000 0.000000 60.616841 -5.337117 17.189469 -56.073420 51.028340 -65.089270 1.685405 13.356945 -41.901187 7.125000 0.000000 0.000000 
14.385227 14.517217 -25.760113 -4.121166 17.230543 -26.215134 -0.516242 26.154073 -35.944036 -34.103755 22.501628 28.758714 17.699334 19.192363 55.595554 0.000000 0.000000 0.000000 15.692973 -35.345671 -39.907402 4.134060 -23.024718 27.840126 -13.200944 6.107132 62.500541 -0.125600 2.284300 -6.292100 15.836980 -33.389068 29.305786 -3.525335 0.068984 -9.455637 6.840992 11.784095 6.054128 -7.040700 4.256500 -1.579000 -49.222632 -0.469546 -9.029067 78.879117 -72.861614 -92.946088 1.228262 -12.404249 11.191280 -7.125000 0.000000 0.000000 61.093680 -4.896509 17.703503 -56.595559 51.472055 -65.168356 1.649637 13.491521 -41.806048 7.125000 0.000000 0.000000 
14.384116 14.520968 -25.777897 -4.032636 17.190838 -26.251139 -0.602666 26.205464 -35.950510 -34.104376 22.402580 28.842891 17.710396 19.202602 55.564335 0.000000 0.000000 0.000000 15.545605 -35.104548 -39.587909 4.201904 -22.975530 27.738741 -13.186052 6.836080 62.726366 -0.572900 4.847300 -13.473600 15.617108 -32.956909 29.641913 -3.420729 -0.040283 -9.108516 6.790161 11.831915 6.023884 -7.049900 4.221700 -1.771500 -48.820999 -1.254188 -8.880428 78.658211 -72.872033 -93.073733 1.191544 -12.292155 11.277899 -7.125000 0.000000 0.000000 60.668319 -4.478434 18.029235 -56.606692 51.479592 -65.094288 1.738118 13.477667 -41.713095 7.125000 0.000000 0.000000 
14.386617 14.518329 -25.791096 -4.186157 17.208004 -26.351496 -0.392637 26.149954 -35.711234 -34.270644 22.288156 28.774647 17.761376 19.272234 55.588160 0.000000 0.000000 0.000000 15.579216 -35.193419 -39.581470 4.250420 -23.100570 27.691718 -13.197715 5.833618 62.506012 -0.113600 2.173000 -5.983900 16.548446 -32.631530 29.792238 -3.661992 0.116144 -9.118843 6.733033 11.757721 6.007956 -7.022800 4.172800 -1.823900 -48.115375 -1.727875 -8.855018 78.801272 -72.588942 -93.277136 1.178379 -12.092146 11.272521 -7.125000 0.000000 0.000000 59.855881 -4.127448 18.100709 -56.718032 51.464437 -65.405984 1.802356 13.452134 -41.841207 7.125000 0.000000 0.000000 
14.391341 14.519301 -25.809436 -4.231787 17.163185 -26.463088 0.080304 25.901856 -35.233692 -34.753193 22.037782 28.407382 17.942438 19.477291 55.655255 0.000000 0.000000 0.000000 15.661249 -35.273352 -39.443863 4.411669 -23.102714 27.577927 -13.268817 6.169018 62.653941 -0.240300 3.154600 -8.709500 16.491788 -32.904841 29.618336 -3.768319 0.198947 -9.016263 6.721570 11.670212 6.012164 -7.069100 4.113800 -1.903900 -47.795240 -2.168762 -8.870436 79.071711 -72.576344 -93.394725 1.167093 -11.960080 11.272185 -7.125000 0.000000 0.000000 59.816997 -4.024737 18.012525 -57.253758 51.787788 -65.979735 1.820226 13.461372 -41.818157 7.125000 0.000000 0.000000 
14.394675 14.518884 -25.826386 -4.526126 17.134748 -26.645932 0.550718 25.633536 -34.766793 -35.044171 21.781508 28.225340 18.064513 19.633942 55.662896 0.000000 0.000000 0.000000 15.946637 -35.293287 -39.337017 4.342587 -23.083197 27.466939 -13.236228 5.659728 62.538832 -0.084100 1.871000 -5.149200 16.792237 -32.788028 29.653778 -4.065195 0.235331 -8.884473 6.652320 11.571089 6.020574 -7.180300 4.033600 -2.000500 -47.174642 -2.737964 -8.688478 78.813888 -72.311209 -93.376924 1.192892 -11.825000 11.339134 -7.125000 0.000000 0.000000 59.570258 -3.827721 17.830780 -57.492747 51.951593 -66.381000 1.843443 13.435791 -41.441611 7.125000 0.000000 0.000000 
